<?xml version="1.0" encoding="utf-8"?>
<!-- Generator: Adobe Illustrator 28.0.0, SVG Export Plug-In . SVG Version: 6.00 Build 0)  -->
<svg version="1.1" xmlns="http://www.w3.org/2000/svg" xmlns:xlink="http://www.w3.org/1999/xlink" x="0px" y="0px"
	 viewBox="0 0 841.89 595.28" style="enable-background:new 0 0 841.89 595.28;" xml:space="preserve">
<style type="text/css">
	.st0{fill:#191919;}
</style>
<g id="レイヤー_1">
</g>
<g id="作業場所">
	<path class="st0" d="M529.09,386.55c-115.92,0-168.86-15.61-193.9-24.43c15.09-21.57,21.52-44.21,21.52-72.53
		c0-73.43-59.53-132.96-132.96-132.96S90.79,216.15,90.79,289.58s59.53,132.96,132.96,132.96c34.8,0,70.32-17.07,94.02-38.94
		c32.7,12.31,91.95,30.32,208.76,30.32c204.94,0,254.89-88.13,254.89-88.13S712.26,386.55,529.09,386.55z M254.05,369.27
		c-13.96-9.09-21.34-22.52-16.47-30c4.87-7.48,20.13-6.18,34.1,2.91c7.38,4.81,12.9,10.82,15.76,16.53
		c-6.88,6.34-14.69,11.67-23.23,15.74C260.86,373.19,257.42,371.46,254.05,369.27z M129.73,289.58c0-51.93,42.09-94.02,94.02-94.02
		s94.02,42.09,94.02,94.02c0,17.96-5.04,34.74-13.78,49.01c-6.42-7.17-14.81-13.62-24.82-18.25c-29.51-13.64-61.88-6.29-69.73,10.69
		c-7.08,15.3,6.49,36.97,30.83,51.09c-5.37,0.95-10.88,1.48-16.53,1.48C171.82,383.6,129.73,341.51,129.73,289.58z"/>
	<g>
		<path class="st0" d="M411.72,329.53c-0.46,2.46-0.46,3.84,1.08,3.84c1.31,0,1.84-1,2.23-1.92h0.54
			c-1.77,12.45-7.07,17.59-13.67,17.59c-4.07,0-6.53-3-7.14-7.53c-2.46,5.76-7.3,7.53-11.45,7.53c-5.92,0-8.83-4.92-7.22-13.06
			l5.15-26.43h15.67l-3.92,19.97c-0.46,2.46-0.38,3.84,0.77,3.84c0.69,0,1.23-0.31,1.84-1.84l4.3-21.97h15.67L411.72,329.53z"/>
		<path class="st0" d="M437.23,329.53c-0.46,2.46-0.46,3.84,1.08,3.84c1.31,0,1.84-1,2.23-1.92h0.54
			c-1.77,12.45-7.07,17.59-13.67,17.59c-5.92,0-8.76-4.92-7.14-13.06l5.15-26.43h15.67L437.23,329.53z M426.17,299.03
			c0.61-4.84,4.76-8.3,10.06-8.3c5.3,0,8.76,3.46,8.14,8.3c-0.61,4.92-4.76,8.45-9.99,8.45
			C428.93,307.48,425.55,303.95,426.17,299.03z"/>
		<path class="st0" d="M458.13,349.04c-8.07,0-13.9-7.99-11.22-21.74c2.15-11.06,10.45-18.82,18.74-18.82
			c6.15,0,10.52,4.99,9.37,10.68c-0.84,4.07-3.38,5.99-7.68,7.22l-0.54-0.61c1.92-2.54,1.08-4.69-0.15-4.69
			c-1.38,0-2.69,2.07-3.38,5.38c-0.77,4.07,0.77,7.84,4.99,7.84c1.77,0,4.07-0.92,5.68-2.84h0.54
			C472.34,344.89,464.81,349.04,458.13,349.04z"/>
		<path class="st0" d="M503.68,291.89l-4.3,22.12c2.61-4.23,6.76-5.53,10.37-5.53c5.92,0,9.53,4.99,8.07,11.14
			c-0.92,3.84-4.84,7.45-10.06,8.37c3.99,1.31,4.69,5.38,7.76,5.38c1.31,0,1.77-1,2.07-1.92h0.54
			c-1.69,12.45-6.76,17.59-12.98,17.59c-5.92,0-8.84-6.53-6.99-13.75c0.61-2.53-0.15-4-2.15-4.3l-3.3,16.98h-15.67l10.98-56.08
			H503.68z M496.77,327.15l-0.23,1c2.69-0.15,3.84-1.61,4.3-3.23c0.38-1.46,0.23-3.84-1.08-3.84c-1.08,0-1.84,0.77-2.53,3.92
			l-0.39,1.84l-0.08,0.38V327.15z"/>
		<path class="st0" d="M589.57,325.69c-3.38,16.52-12.44,23.35-22.28,23.35c-4.99,0-9.22-1.92-11.52-6.15
			c-3.38,4.69-8.76,6.15-12.14,6.15c-7.99,0-10.91-4.92-9.3-13.06l5.15-26.43h15.67l-3.92,20.21c-0.46,2.46-0.38,3.61,0.77,3.61
			c0.85,0,1.38-0.38,2.07-2.46c0.15-0.85,0.31-1.77,0.46-2.77l3.61-18.59h15.67l-3.92,20.21c-0.46,2.46-0.38,3.61,0.46,3.61
			c1.15,0,2.92-4.07,4.07-10.83c1.77-10.14,2.69-16.52,0.46-17.98v-0.54C588.73,305.56,591.8,314.86,589.57,325.69z"/>
		<path class="st0" d="M591.88,326.46c2.07-10.45,10.22-17.98,19.36-17.98c11.37,0,17.82,9.45,15.36,22.59
			c-1.92,10.45-10.06,17.98-19.36,17.98C595.87,349.04,589.42,339.59,591.88,326.46z M611.85,327.22c0.77-3.92,0.31-6.15-1.38-6.15
			c-1.23,0-2.38,2.23-3.15,6.15c-0.84,3.92-0.38,6.15,1.38,6.15C609.93,333.37,611.08,331.14,611.85,327.22z"/>
		<path class="st0" d="M649.88,309.56l-0.92,4.61c2.61-4.3,6.61-5.69,9.14-5.69c4.3,0,6.38,3.76,5.76,8.14
			c-0.77,5.84-6.22,11.22-14.37,11.37l-0.23-0.69c1.23-1.61,1.69-3.15,1.69-4.23c0-1.23-0.54-2-1.23-2c-1.31,0-2,1-3.77,8.6
			l-3.53,18.28h-15.67l7.45-38.41H649.88z"/>
		<path class="st0" d="M686.75,291.89l-4.3,22.12c2.61-4.23,6.76-5.53,10.37-5.53c5.92,0,9.53,4.99,8.07,11.14
			c-0.92,3.84-4.84,7.45-10.06,8.37c3.99,1.31,4.69,5.38,7.76,5.38c1.31,0,1.77-1,2.07-1.92h0.54
			c-1.69,12.45-6.76,17.59-12.98,17.59c-5.92,0-8.83-6.53-6.99-13.75c0.62-2.53-0.15-4-2.15-4.3l-3.3,16.98H660.1l10.98-56.08
			H686.75z M679.84,327.15l-0.23,1c2.69-0.15,3.84-1.61,4.3-3.23c0.39-1.46,0.23-3.84-1.08-3.84c-1.08,0-1.84,0.77-2.53,3.92
			l-0.38,1.84l-0.08,0.38V327.15z"/>
	</g>
</g>
</svg>
